<svg xmlns="http://www.w3.org/2000/svg" xmlns:xlink="http://www.w3.org/1999/xlink" width="220.059" height="220" viewBox="0 0 220.059 220">
  <defs>
    <clipPath id="clip-path">
      <path id="Path_2" data-name="Path 2" d="M91.875,91.875h191.25v191.25H91.875Zm0,0"/>
    </clipPath>
    <clipPath id="clip-path-2">
      <path id="Path_4" data-name="Path 4" d="M121.844,120.867h51.75v51.75h-51.75Zm0,0"/>
    </clipPath>
    <clipPath id="clip-path-3">
      <path id="Path_6" data-name="Path 6" d="M195.441,124.531h45v4.5h-45Zm0,0"/>
    </clipPath>
    <clipPath id="clip-path-4">
      <path id="Path_8" data-name="Path 8" d="M195.441,167.969h45v4.5h-45Zm0,0"/>
    </clipPath>
    <clipPath id="clip-path-5">
      <path id="Path_10" data-name="Path 10" d="M195.441,146.578h55.5v4.5h-55.5Zm0,0"/>
    </clipPath>
    <clipPath id="clip-path-6">
      <path id="Path_12" data-name="Path 12" d="M121.844,249.391h48.75v4.5h-48.75Zm0,0"/>
    </clipPath>
    <clipPath id="clip-path-7">
      <path id="Path_14" data-name="Path 14" d="M77.809,184.5h219.75v48.75H77.809Zm0,0"/>
    </clipPath>
    <clipPath id="clip-path-8">
      <path id="Path_27" data-name="Path 27" d="M130.7,129.723h33.75v33.75H130.7Zm0,0"/>
    </clipPath>
  </defs>
  <g id="Logo_2" data-name="Logo 2" transform="translate(-77.5 -77.5)">
    <rect id="Rectangle_1" data-name="Rectangle 1" width="220" height="220" transform="translate(77.5 77.5)" fill="#fff" opacity="0"/>
    <rect id="Rectangle_2" data-name="Rectangle 2" width="192" height="192" transform="translate(91.5 91.5)" fill="#fff"/>
    <g id="Group_1" data-name="Group 1" clip-path="url(#clip-path)">
      <path id="Path_1" data-name="Path 1" d="M91.875,91.875v191.25h191.25V91.875H91.875m185.16,185.16H97.84V97.84h179.2v179.2" fill="#5c5cc4"/>
    </g>
    <g id="Group_2" data-name="Group 2" clip-path="url(#clip-path-2)">
      <path id="Path_3" data-name="Path 3" d="M121.844,120.867h51.75v51.75h-51.75v-51.75" fill="#5c5cc4"/>
    </g>
    <g id="Group_3" data-name="Group 3" clip-path="url(#clip-path-3)">
      <path id="Path_5" data-name="Path 5" d="M195.449,124.531H240.43v4.5H195.449v-4.5" fill="#5c5cc4"/>
    </g>
    <g id="Group_4" data-name="Group 4" clip-path="url(#clip-path-4)">
      <path id="Path_7" data-name="Path 7" d="M195.441,167.969h45v4.5h-45v-4.5" fill="#5c5cc4"/>
    </g>
    <g id="Group_5" data-name="Group 5" clip-path="url(#clip-path-5)">
      <path id="Path_9" data-name="Path 9" d="M195.484,146.578H250.9v4.5H195.484v-4.5" fill="#5c5cc4"/>
    </g>
    <g id="Group_6" data-name="Group 6" clip-path="url(#clip-path-6)">
      <path id="Path_11" data-name="Path 11" d="M121.871,249.391h48.692v4.5H121.871v-4.5" fill="#5c5cc4"/>
    </g>
    <g id="Group_7" data-name="Group 7" clip-path="url(#clip-path-7)">
      <path id="Path_13" data-name="Path 13" d="M297.559,184.5H77.813L91.9,208.875,77.813,233.25H297.559l-14.086-24.375L297.559,184.5" fill="#5c5cc4"/>
    </g>
    <g id="Group_12" data-name="Group 12">
      <g id="Group_9" data-name="Group 9" transform="translate(108.602 224.342)">
        <g id="Group_8" data-name="Group 8">
          <path id="Path_15" data-name="Path 15" d="M8.109-29.406q3.48,0,5.031,1.922A8.1,8.1,0,0,1,14.7-22.219v3.531a7.51,7.51,0,0,1-1.672,5.313q-1.658,1.781-5.172,1.781H4.953V0H1.688V-29.406Zm-.25,14.875a3.63,3.63,0,0,0,2.719-.906,4.251,4.251,0,0,0,.891-3.047v-3.906a4.865,4.865,0,0,0-.781-3.016,3.062,3.062,0,0,0-2.578-1.016H4.953v11.891Zm0,0" fill="#fff"/>
        </g>
      </g>
      <g id="Group_11" data-name="Group 11" transform="translate(124.31 224.342)">
        <g id="Group_10" data-name="Group 10">
          <path id="Path_16" data-name="Path 16" d="M8.234-29.406q3.48,0,5.016,1.734a7.277,7.277,0,0,1,1.531,4.984v2.406a7.734,7.734,0,0,1-.891,3.953,4.676,4.676,0,0,1-2.766,2.094,4.452,4.452,0,0,1,2.859,2.156,8.364,8.364,0,0,1,.844,3.969v4.578c0,.648.023,1.273.078,1.875A4.334,4.334,0,0,0,15.406,0H12.094a5.018,5.018,0,0,1-.422-1.359,13.9,13.9,0,0,1-.125-2.2V-8.187q0-2.484-1.109-3.422a4.747,4.747,0,0,0-3.172-.953H4.953V0H1.688V-29.406ZM7.391-15.547a5.043,5.043,0,0,0,3.062-.812c.727-.539,1.094-1.613,1.094-3.219v-2.812a4.864,4.864,0,0,0-.781-3.016,3.091,3.091,0,0,0-2.625-1.016H4.953v10.875Zm0,0" fill="#fff"/>
        </g>
      </g>
    </g>
    <g id="Group_15" data-name="Group 15">
      <g id="Group_14" data-name="Group 14" transform="translate(140.858 224.342)">
        <g id="Group_13" data-name="Group 13">
          <path id="Path_17" data-name="Path 17" d="M4.953-29.406V0H1.688V-29.406Zm0,0" fill="#fff"/>
        </g>
      </g>
    </g>
    <g id="Group_18" data-name="Group 18">
      <g id="Group_17" data-name="Group 17" transform="translate(147.494 224.342)">
        <g id="Group_16" data-name="Group 16">
          <path id="Path_18" data-name="Path 18" d="M4.578,0H1.641V-29.406H5.8l6.8,21.266V-29.406H15.5V0H12.094L4.578-23.766Zm0,0" fill="#fff"/>
        </g>
      </g>
    </g>
    <g id="Group_21" data-name="Group 21">
      <g id="Group_20" data-name="Group 20" transform="translate(164.672 224.342)">
        <g id="Group_19" data-name="Group 19">
          <path id="Path_19" data-name="Path 19" d="M5.969,0V-26.422H.547v-2.984H14.656v2.984H9.234V0Zm0,0" fill="#fff"/>
        </g>
      </g>
    </g>
    <g id="Group_24" data-name="Group 24">
      <g id="Group_23" data-name="Group 23" transform="translate(179.91 224.342)">
        <g id="Group_22" data-name="Group 22">
          <path id="Path_20" data-name="Path 20" d="M4.578,0H1.641V-29.406H5.8l6.8,21.266V-29.406H15.5V0H12.094L4.578-23.766Zm0,0" fill="#ffbd59"/>
        </g>
      </g>
    </g>
    <g id="Group_27" data-name="Group 27">
      <g id="Group_26" data-name="Group 26" transform="translate(197.088 224.342)">
        <g id="Group_25" data-name="Group 25">
          <path id="Path_21" data-name="Path 21" d="M1.422-22.3a8.15,8.15,0,0,1,1.656-5.391,6.224,6.224,0,0,1,5.062-2,6.253,6.253,0,0,1,5.078,2A8.056,8.056,0,0,1,14.906-22.3v15.2a8.1,8.1,0,0,1-1.687,5.375A6.224,6.224,0,0,1,8.141.3,6.2,6.2,0,0,1,3.078-1.719,8.192,8.192,0,0,1,1.422-7.094ZM4.656-6.937A5.016,5.016,0,0,0,5.516-3.8,3.129,3.129,0,0,0,8.141-2.687,3.118,3.118,0,0,0,10.8-3.8a5.092,5.092,0,0,0,.844-3.141V-22.469a5.074,5.074,0,0,0-.844-3.125,3.105,3.105,0,0,0-2.656-1.125,3.116,3.116,0,0,0-2.625,1.125,5,5,0,0,0-.859,3.125Zm0,0" fill="#ffbd59"/>
        </g>
      </g>
    </g>
    <g id="Group_30" data-name="Group 30">
      <g id="Group_29" data-name="Group 29" transform="translate(213.426 224.342)">
        <g id="Group_28" data-name="Group 28">
          <path id="Path_22" data-name="Path 22" d="M5.969,0V-26.422H.547v-2.984H14.656v2.984H9.234V0Zm0,0" fill="#ffbd59"/>
        </g>
      </g>
    </g>
    <g id="Group_33" data-name="Group 33">
      <g id="Group_32" data-name="Group 32" transform="translate(228.672 224.342)">
        <g id="Group_31" data-name="Group 31">
          <path id="Path_23" data-name="Path 23" d="M4.953-29.406V0H1.688V-29.406Zm0,0" fill="#ffbd59"/>
        </g>
      </g>
    </g>
    <g id="Group_36" data-name="Group 36">
      <g id="Group_35" data-name="Group 35" transform="translate(235.308 224.342)">
        <g id="Group_34" data-name="Group 34">
          <path id="Path_24" data-name="Path 24" d="M8.016-29.687a6.035,6.035,0,0,1,5.016,2.016A8.321,8.321,0,0,1,14.656-22.3v2.641H11.547v-2.812a5.154,5.154,0,0,0-.828-3.125,3,3,0,0,0-2.609-1.125A3.047,3.047,0,0,0,5.5-25.594a5.074,5.074,0,0,0-.844,3.125V-6.937A5.092,5.092,0,0,0,5.5-3.8,3.058,3.058,0,0,0,8.109-2.687,3.015,3.015,0,0,0,10.719-3.8a5.173,5.173,0,0,0,.828-3.141V-10.75h3.109v3.656a8.314,8.314,0,0,1-1.625,5.375A6.035,6.035,0,0,1,8.016.3,6.016,6.016,0,0,1,3.031-1.719,8.354,8.354,0,0,1,1.422-7.094V-22.3a10.976,10.976,0,0,1,.391-3.047,6.269,6.269,0,0,1,1.219-2.328,5.405,5.405,0,0,1,2.063-1.484A7.461,7.461,0,0,1,8.016-29.687Zm0,0" fill="#ffbd59"/>
        </g>
      </g>
    </g>
    <g id="Group_39" data-name="Group 39">
      <g id="Group_38" data-name="Group 38" transform="translate(251.268 224.342)">
        <g id="Group_37" data-name="Group 37">
          <path id="Path_25" data-name="Path 25" d="M12.141-16.375v2.938H4.953V-2.984h8.828V0H1.688V-29.406H13.781v2.984H4.953v10.047Zm0,0" fill="#ffbd59"/>
        </g>
      </g>
    </g>
    <g id="Group_40" data-name="Group 40" clip-path="url(#clip-path-8)">
      <path id="Path_26" data-name="Path 26" d="M130.7,129.723h33.75v33.75H130.7v-33.75" fill="#ffbd59"/>
    </g>
  </g>
</svg>
