<svg xmlns="http://www.w3.org/2000/svg" xmlns:xlink="http://www.w3.org/1999/xlink" width="1923.78" height="948.733" viewBox="0 0 1923.78 948.733">
  <defs>
    <linearGradient id="linear-gradient" x1="0.5" x2="0.5" y2="1" gradientUnits="objectBoundingBox">
      <stop offset="0" stop-color="#81e3d3"/>
      <stop offset="1" stop-color="#f1d26d" stop-opacity="0.478"/>
    </linearGradient>
  </defs>
  <path id="Path_21" data-name="Path 21" d="M-856.163-.733l1923,.659V322.275s9.833,109.812-103.718,186.019S744.239,530.68,585.2,611.653c-52.643,26.8-41.284,105.633-76.273,106.628-44.959,1.279-151.342-64.534-198.711-63.313-25.866.667-37.439,85.075-83.492,101.451-48.033,17.08-84.347,8.554-149.117-38.138S-18.244,780.689-67.17,786.719s-163.185-128.623-281.2-90.6-44,191.747-156.965,218.128C-564.3,928.02-633.341,880.5-672.319,880.03c-35.361-.424-75.169,71.491-114.05,67.835-81.342-7.647-69.794-161.146-69.794-161.146S-855.23,282.7-856.163-.733Z" transform="translate(856.728 0.733)" fill="url(#linear-gradient)"/>
</svg>
